<svg width="22" height="20" viewBox="0 0 22 20" fill="none" xmlns="http://www.w3.org/2000/svg">
<path d="M0.544469 9.95804L5.57572 11.6666L17.5218 4.36351C17.6952 4.25804 17.8726 4.4932 17.7234 4.6307L8.67963 12.9549L8.34369 17.6151C8.3382 17.6931 8.35657 17.771 8.39637 17.8384C8.43617 17.9058 8.49551 17.9595 8.56652 17.9924C8.63754 18.0252 8.71687 18.0358 8.79399 18.0225C8.87112 18.0093 8.9424 17.9729 8.99838 17.9182L11.7828 15.1799L16.8734 19.033C17.4218 19.4487 18.2163 19.1557 18.364 18.4838L21.9085 2.39007C22.1109 1.4721 21.2109 0.697104 20.3335 1.03304L0.519469 8.62054C-0.102406 8.85882 -0.0852182 9.74398 0.544469 9.95804Z" fill="#6EECE4"/>
</svg>
