<svg width="33" height="29" viewBox="0 0 33 29" fill="none" xmlns="http://www.w3.org/2000/svg">
<path d="M31.6866 3.57051H1.14925C0.492537 3.57051 0 3.04167 0 2.16026C0 1.27885 0.492538 0.75 1.31343 0.75H31.6866C32.3433 0.75 33 1.27885 33 2.16026C33 3.04167 32.3433 3.57051 31.6866 3.57051ZM31.6866 15.9103H1.14925C0.492537 15.9103 0 15.3814 0 14.5C0 13.6186 0.492538 13.0897 1.31343 13.0897H31.6866C32.3433 13.0897 33 13.6186 33 14.5C33 15.3814 32.3433 15.9103 31.6866 15.9103ZM31.6866 28.25H1.14925C0.492537 28.25 0 27.7212 0 26.8397C0 25.9583 0.492538 25.4295 1.31343 25.4295H31.6866C32.3433 25.4295 33 25.9583 33 26.8397C33 27.7212 32.3433 28.25 31.6866 28.25Z" fill="white"/>
</svg>
