<svg width="20" height="21" viewBox="0 0 20 21" fill="none" xmlns="http://www.w3.org/2000/svg">
<path d="M19.5857 9.80078L1.01474 0.569361C0.719032 0.424735 0.366184 0.510895 0.160475 0.784761C0.0598159 0.917417 0.00341386 1.08262 0.000305631 1.25391C-0.0028026 1.4252 0.0475629 1.59265 0.143332 1.72944L6.25032 10.4993L0.143332 19.2691C-0.0538057 19.5507 -0.046663 19.9415 0.159046 20.2138C0.297614 20.4 0.504752 20.5 0.714747 20.5C0.816173 20.5 0.917599 20.4769 1.01331 20.4292L19.5843 11.1978C19.8386 11.0716 20 10.7993 20 10.4993C20 10.1993 19.8386 9.92695 19.5857 9.80078Z" fill="white"/>
</svg>
