<svg width="26" height="26" viewBox="0 0 26 26" fill="none" xmlns="http://www.w3.org/2000/svg">
<path d="M19.2498 0.5H6.75009C3.31298 0.5 0.500244 3.31274 0.500244 6.74985V19.2502C0.500244 22.6863 3.31298 25.5 6.75009 25.5H19.2498C22.6869 25.5 25.4996 22.6863 25.4996 19.2502V6.74985C25.4996 3.31274 22.6869 0.5 19.2498 0.5ZM23.4163 19.2502C23.4163 21.547 21.5479 23.4166 19.2498 23.4166H6.75009C4.45297 23.4166 2.58363 21.547 2.58363 19.2502V6.74985C2.58363 4.45242 4.45297 2.58338 6.75009 2.58338H19.2498C21.5479 2.58338 23.4163 4.45242 23.4163 6.74985V19.2502Z" fill="#D255E7"/>
<path d="M19.7714 7.79143C20.6344 7.79143 21.3339 7.09189 21.3339 6.22897C21.3339 5.36604 20.6344 4.6665 19.7714 4.6665C18.9085 4.6665 18.209 5.36604 18.209 6.22897C18.209 7.09189 18.9085 7.79143 19.7714 7.79143Z" fill="#D255E7"/>
<path d="M12.9998 6.75C9.54742 6.75 6.75 9.54772 6.75 12.9998C6.75 16.4507 9.54742 19.2503 12.9998 19.2503C16.4513 19.2503 19.2497 16.4507 19.2497 12.9998C19.2497 9.54772 16.4513 6.75 12.9998 6.75ZM12.9998 17.1669C10.6989 17.1669 8.83338 15.3014 8.83338 12.9998C8.83338 10.6983 10.6989 8.83338 12.9998 8.83338C15.3008 8.83338 17.1663 10.6983 17.1663 12.9998C17.1663 15.3014 15.3008 17.1669 12.9998 17.1669Z" fill="#D255E7"/>
</svg>
