<svg width="24" height="26" viewBox="0 0 24 26" fill="none" xmlns="http://www.w3.org/2000/svg">
<path d="M23.6198 14.972C24.3656 8.69384 23.2614 4.7303 21.2698 2.93759L21.2708 2.93655C18.0562 -0.124913 7.19996 -0.578039 3.35413 3.07405C1.62704 4.8605 1.01871 7.48238 0.952044 10.7282C0.885377 13.9751 0.806211 20.0574 6.47392 21.7074H6.47913L6.47392 24.2272C6.47392 24.2272 6.43538 25.248 7.08746 25.4532C7.83329 25.6949 8.17079 25.2209 10.4906 22.4501C14.3698 22.7865 17.3489 22.0157 17.6875 21.9032C18.4708 21.6407 22.9031 21.0543 23.6198 14.972ZM10.8729 20.6772C10.8729 20.6772 8.41767 23.7386 7.65413 24.5334C7.40413 24.7918 7.13017 24.7678 7.13434 24.2553C7.13434 23.9188 7.15309 20.072 7.15309 20.072C2.34788 18.6949 2.63121 13.5157 2.68329 10.8063C2.73538 8.09592 3.23121 5.87613 4.69371 4.38134C8.06767 1.2178 17.5854 1.92509 20.0104 4.20425C22.975 6.83238 21.9198 14.2574 21.926 14.5105C21.3166 19.5876 17.725 19.9095 17.0645 20.1293C16.7823 20.223 14.1625 20.897 10.8729 20.6772Z" fill="#68A4FF"/>
<path d="M12.2312 4.97607C11.8302 4.97607 11.8302 5.60107 12.2312 5.60628C15.3427 5.63024 17.9052 7.79899 17.9333 11.7771C17.9333 12.1969 18.5479 12.1917 18.5427 11.7719C18.5093 7.48545 15.7104 5.00003 12.2312 4.97607Z" fill="#68A4FF"/>
<path d="M16.3239 11.1179C16.3145 11.5325 16.9281 11.5523 16.9333 11.1325C16.9843 8.76894 15.527 6.82206 12.7885 6.61686C12.3874 6.58769 12.3458 7.2179 12.7458 7.24706C15.1208 7.42727 16.3718 9.04811 16.3239 11.1179ZM15.6676 13.8064C15.1531 13.5085 14.6291 13.6939 14.4124 13.9866L13.9593 14.5731C13.7291 14.871 13.2989 14.8314 13.2989 14.8314C10.1593 14.0012 9.31973 10.7158 9.31973 10.7158C9.31973 10.7158 9.28119 10.271 9.56869 10.0325L10.1354 9.56373C10.4187 9.33873 10.5979 8.79706 10.3093 8.26477C9.53848 6.87206 9.02077 6.39186 8.75723 6.02311C8.48015 5.67623 8.06348 5.59811 7.63015 5.83248H7.62077C6.71973 6.35956 5.73327 7.34602 6.0489 8.36165C6.58744 9.43248 7.57702 12.846 10.7312 15.4252C12.2135 16.645 14.5593 17.895 15.5551 18.1835L15.5645 18.1981C16.5458 18.5252 17.4999 17.5002 18.0093 16.5721V16.5648C18.2354 16.1158 18.1604 15.6908 17.8301 15.4127C17.2447 14.8419 16.3614 14.2116 15.6676 13.8064Z" fill="#68A4FF"/>
<path d="M13.2177 8.94191C14.2187 9.00024 14.7041 9.52316 14.7562 10.5971C14.7749 11.0169 15.3843 10.9877 15.3656 10.568C15.2989 9.16587 14.5677 8.38462 13.251 8.3117C12.8499 8.28774 12.8124 8.91795 13.2177 8.94191Z" fill="#68A4FF"/>
</svg>
